<?xml version="1.0" standalone="no"?>
<!DOCTYPE svg PUBLIC "-//W3C//DTD SVG 20010904//EN"
 "http://www.w3.org/TR/2001/REC-SVG-20010904/DTD/svg10.dtd">
<svg version="1.0" xmlns="http://www.w3.org/2000/svg"
 width="500.000000pt" height="500.000000pt" viewBox="0 0 500.000000 500.000000"
 preserveAspectRatio="xMidYMid meet">

<g transform="translate(0.000000,500.000000) scale(0.100000,-0.100000)"
fill="#000000" stroke="none">
<path d="M1830 2755 l0 -415 109 0 110 0 3 200 c3 199 3 200 29 225 14 14 41
28 61 31 30 5 41 2 62 -19 l26 -26 0 -206 0 -205 116 0 116 0 -4 233 c-3 223
-4 234 -28 282 -29 58 -74 91 -136 101 -66 10 -125 -3 -188 -41 l-56 -34 0
145 0 144 -110 0 -110 0 0 -415z"/>
<path d="M3250 2755 l0 -415 110 0 110 0 0 415 0 415 -110 0 -110 0 0 -415z"/>
<path d="M3986 3153 c-2 -10 -8 -33 -11 -52 l-7 -34 38 6 c39 7 60 25 44 41
-6 6 -5 14 1 22 16 19 2 34 -31 34 -19 0 -30 -6 -34 -17z m52 -5 c-7 -19 -38
-22 -38 -4 0 10 9 16 21 16 12 0 19 -5 17 -12z m-8 -43 c0 -8 -9 -15 -20 -15
-20 0 -26 11 -13 23 12 13 33 7 33 -8z"/>
<path d="M4086 3153 c-2 -10 -7 -33 -11 -50 -6 -32 -6 -33 29 -33 19 0 38 5
41 10 4 6 -7 10 -25 10 -40 0 -36 22 6 31 l29 7 -27 1 c-40 2 -36 29 5 34 l32
4 -37 1 c-27 2 -38 -2 -42 -15z"/>
<path d="M4176 3153 c-13 -49 -17 -83 -8 -83 5 0 13 16 16 35 8 41 21 38 31
-5 7 -30 32 -41 40 -17 11 35 15 87 7 87 -6 0 -13 -17 -17 -37 l-8 -38 -15 38
c-16 39 -37 49 -46 20z"/>
<path d="M4302 3158 c-22 -28 -18 -75 8 -83 19 -6 66 12 57 22 -3 2 -14 0 -26
-6 -16 -9 -22 -8 -29 6 -13 25 3 63 27 63 11 0 21 -6 24 -12 2 -7 8 -10 12 -6
13 12 -6 28 -34 28 -16 0 -33 -6 -39 -12z"/>
<path d="M4406 3153 c-14 -50 -17 -83 -7 -83 5 0 11 10 13 23 2 16 10 22 28
22 20 0 24 -4 22 -22 -2 -13 2 -23 7 -23 6 0 11 3 11 8 1 4 5 26 9 50 8 42 -2
59 -14 22 -4 -13 -15 -20 -32 -20 -20 0 -24 4 -20 20 6 25 -10 27 -17 3z"/>
<path d="M551 3124 c-153 -41 -229 -159 -191 -296 25 -88 95 -135 270 -178
160 -39 179 -47 186 -77 14 -53 -67 -83 -167 -62 -46 10 -53 15 -68 50 l-16
39 -114 0 -114 0 6 -45 c21 -151 132 -217 367 -219 140 -1 198 13 270 65 55
40 90 114 90 192 0 72 -17 113 -64 155 -46 40 -81 55 -198 82 -194 45 -227 65
-194 115 41 62 206 32 206 -37 0 -16 10 -18 116 -18 l117 0 -7 47 c-12 91 -82
158 -198 189 -68 18 -227 17 -297 -2z"/>
<path d="M1325 2946 c-97 -24 -162 -75 -199 -156 -17 -36 -21 -65 -21 -146 0
-92 3 -105 30 -159 33 -63 96 -116 163 -135 151 -44 343 -6 417 81 30 36 40
60 50 113 l7 36 -106 0 c-101 0 -106 -1 -106 -21 0 -11 -13 -34 -29 -50 -26
-25 -37 -29 -85 -29 -47 0 -61 4 -88 29 l-33 29 0 107 0 107 33 29 c65 58 191
27 192 -48 0 -22 3 -23 110 -23 123 0 119 -3 95 76 -39 132 -240 207 -430 160z"/>
<path d="M2735 2947 c-98 -26 -162 -76 -199 -157 -17 -36 -21 -65 -21 -146 0
-92 3 -105 30 -159 21 -41 44 -68 78 -91 67 -46 116 -59 232 -59 88 0 107 4
161 29 120 54 167 135 167 281 0 143 -49 228 -163 279 -73 33 -205 43 -285 23z
m200 -169 c27 -31 39 -109 29 -187 -10 -78 -43 -111 -113 -111 -42 0 -56 5
-83 29 l-33 29 0 107 0 107 34 30 c31 28 39 30 89 26 44 -4 60 -10 77 -30z"/>
<path d="M3721 2945 c-106 -24 -166 -74 -178 -149 l-6 -36 111 0 c101 0 110 2
115 20 9 36 90 52 141 29 14 -7 30 -25 36 -42 18 -53 15 -57 -47 -57 -254 -2
-366 -66 -366 -211 0 -116 61 -164 208 -164 82 0 97 3 159 34 l68 33 26 -25
c39 -36 95 -51 166 -44 95 9 96 10 96 82 l0 64 -37 3 -38 3 -5 165 c-6 180
-14 210 -67 248 -75 53 -258 75 -382 47z m229 -359 c0 -74 -46 -118 -127 -118
-55 0 -73 15 -73 58 0 51 56 81 158 83 38 1 42 -1 42 -23z"/>
<path d="M4554 2946 c-17 -8 -45 -31 -62 -51 -34 -41 -33 -42 -44 30 -3 18
-12 20 -96 23 l-92 3 0 -306 0 -305 110 0 110 0 0 129 c0 240 21 283 140 289
l70 4 0 93 c0 75 -3 94 -16 99 -26 10 -87 6 -120 -8z"/>
</g>
</svg>
